<?xml version="1.0" encoding="utf-8"?>
<!-- Generator: Adobe Illustrator 19.0.0, SVG Export Plug-In . SVG Version: 6.00 Build 0)  -->
<svg version="1.1" id="Calque_1" xmlns="http://www.w3.org/2000/svg" xmlns:xlink="http://www.w3.org/1999/xlink" x="0px" y="0px"
	 viewBox="0 0 226.8 226.8" style="enable-background:new 0 0 226.8 226.8;" xml:space="preserve">
<style type="text/css">
	.st0{fill:#FFFFFF;stroke:#000000;stroke-width:2;stroke-miterlimit:10;}
</style>
<path id="XMLID_15_" class="st0" d="M155.4,62.1h-25.1v-1.5c0-3.6-3.2-6.6-7.1-6.6h-23.1c-3.9,0-7.1,3-7.1,6.6v8v8.3v75.6
	c0,3.6,3.1,6.5,7,6.5h55.4c3.8,0,7-2.9,7-6.5V68.6C162.4,65,159.2,62.1,155.4,62.1z"/>
<path id="XMLID_17_" class="st0" d="M141.1,67.5H116V66c0-3.6-3.2-6.6-7.1-6.6H85.8c-3.9,0-7.1,3-7.1,6.6v8v8.3v75.6
	c0,3.6,3.1,6.5,7,6.5h55.4c3.8,0,7-2.9,7-6.5V74C148.1,70.4,144.9,67.5,141.1,67.5z"/>
<path id="XMLID_18_" class="st0" d="M127.1,75.8H102v-1.5c0-3.6-3.2-6.6-7.1-6.6H71.8c-3.9,0-7.1,3-7.1,6.6v8v8.3v75.6
	c0,3.6,3.1,6.5,7,6.5h55.4c3.8,0,7-2.9,7-6.5V82.3C134.1,78.8,130.9,75.8,127.1,75.8z"/>
</svg>
