<?xml version="1.0" encoding="utf-8"?>
<!-- Generator: Adobe Illustrator 19.0.0, SVG Export Plug-In . SVG Version: 6.00 Build 0)  -->
<svg version="1.1" id="Calque_1" xmlns="http://www.w3.org/2000/svg" xmlns:xlink="http://www.w3.org/1999/xlink" x="0px" y="0px"
	 viewBox="0 0 226.8 226.8" style="enable-background:new 0 0 226.8 226.8;" xml:space="preserve">
<style type="text/css">
	.st0{fill:#FFFFFF;stroke:#000000;stroke-width:2;stroke-miterlimit:10;}
	.st1{fill:#FFFFFF;stroke:#000000;stroke-width:2;stroke-linecap:round;stroke-linejoin:round;stroke-miterlimit:10;}
</style>
<path id="XMLID_35_" class="st0" d="M69.3,129.2c0,0,0-24.5,0-28.7s2.9-5.9,7.9-6.4c5-0.5,14.6,0,16.2,0s13.9-7.2,16.7-11.5
	s7-2,7.4,7.3s0.4,9.2,0.4,9.2v22.3v7.3V98.6v7.3v22.3c0,0,0,0-0.4,9.2s-4.6,11.6-7.4,7.3s-15.1-11.5-16.7-11.5s-11.2,0.5-16.2,0
	s-7.9-2.3-7.9-6.4c0-4.1,0-28.7,0-28.7"/>
<path id="XMLID_36_" class="st1" d="M128.6,102.1c7.2,6.9,7.4,14.7,0,21.8"/>
<path id="XMLID_34_" class="st1" d="M135.2,94.1c11.2,10.8,11.4,22.9,0,33.9"/>
<path id="XMLID_37_" class="st1" d="M145.1,91.4c13,12.5,13.3,26.5,0,39.3"/>
</svg>
