<?xml version="1.0" encoding="utf-8"?>
<!-- Generator: Adobe Illustrator 19.0.0, SVG Export Plug-In . SVG Version: 6.00 Build 0)  -->
<svg version="1.1" id="Calque_1" xmlns="http://www.w3.org/2000/svg" xmlns:xlink="http://www.w3.org/1999/xlink" x="0px" y="0px"
	 viewBox="0 0 226.8 226.8" style="enable-background:new 0 0 226.8 226.8;" xml:space="preserve">
<style type="text/css">
	.st0{fill:#FFFFFF;stroke:#000000;stroke-width:2;stroke-miterlimit:10;}
</style>
<circle id="XMLID_52_" class="st0" cx="107.8" cy="131.2" r="6"/>
<circle id="XMLID_51_" class="st0" cx="107.8" cy="69.7" r="6"/>
<path id="XMLID_47_" class="st0" d="M108.3,137.3c-20.3,0-36.8-16.5-36.8-36.8S88,63.6,108.3,63.6"/>
<path id="XMLID_49_" class="st0" d="M108.3,140"/>
<path id="XMLID_48_" class="st0" d="M108.3,75.7c-13.7,0-24.8,11.1-24.8,24.8s11.1,24.8,24.8,24.8"/>
<path id="XMLID_46_" class="st0" d="M152.9,125.6L124.7,102c-3.4-2.9-8.6-2.4-11.5,1l-2.7,3.2c-2.9,3.4-2.4,8.6,1,11.5l17.1,14.3
	L110.9,147c-3.4,2.9-3.9,8.1-1,11.5l2.7,3.2c2.9,3.4,8.1,3.9,11.5,1l23.9-19.8c1-0.8,1.2-1.2,2.3-2.1l1.2-1c0.6-0.5,1.6-1.6,2.4-2.5
	l0,0C156.8,133.7,156.3,128.5,152.9,125.6z"/>
</svg>
