<?xml version="1.0" encoding="utf-8"?>
<!-- Generator: Adobe Illustrator 19.0.0, SVG Export Plug-In . SVG Version: 6.00 Build 0)  -->
<svg version="1.1" id="Calque_1" xmlns="http://www.w3.org/2000/svg" xmlns:xlink="http://www.w3.org/1999/xlink" x="0px" y="0px"
	 viewBox="-184 308.1 226.8 226.8" style="enable-background:new -184 308.1 226.8 226.8;" xml:space="preserve">
<style type="text/css">
	.st0{fill:#FFFFFF;stroke:#000000;stroke-width:2;stroke-miterlimit:10;}
	.st1{fill:#FFFFFF;stroke:#000000;stroke-width:2;}
	.st2{fill:none;stroke:#000000;stroke-width:2;stroke-miterlimit:10;}
	.st3{fill:#FFFFFF;stroke:#000000;stroke-width:2;stroke-linecap:round;stroke-linejoin:round;stroke-miterlimit:10;}
	.st4{fill:none;stroke:#000000;stroke-width:2;stroke-linecap:round;stroke-linejoin:round;stroke-miterlimit:10;}
</style>
<g id="XMLID_76_">
	<circle id="XMLID_88_" class="st0" cx="-79" cy="402.2" r="18.3"/>
	<path id="XMLID_77_" class="st1" d="M-65.7,417.9c-14.2,10.8-26.4,0-26.4,0c-2.5,1.6-5.3,3.7-8.1,6.5c-7.7,8-10.4,17-11.5,21.9
		c3.1,2.7,14.2,12,31.2,12.7c19.1,0.8,31.9-9.8,34.7-12.2C-49.2,426.2-65.7,417.9-65.7,417.9z"/>
</g>
<line id="XMLID_97_" class="st2" x1="-44.7" y1="400.5" x2="-44.7" y2="406.6"/>
<path id="XMLID_96_" class="st3" d="M-44.7,400.5c0-3.5,2.9-6.4,6.4-6.4s6.4,2.9,6.4,6.4"/>
<path id="XMLID_89_" class="st0" d="M-31,419.1h-14.6c-1.3,0-2.3-1-2.3-2.3V406c0-1.3,1-2.3,2.3-2.3H-31c1.3,0,2.3,1,2.3,2.3v10.8
	C-28.6,418.1-29.7,419.1-31,419.1z"/>
<line id="XMLID_98_" class="st4" x1="-31.8" y1="400.5" x2="-31.8" y2="403.6"/>
</svg>
