<?xml version="1.0" encoding="utf-8"?>
<!-- Generator: Adobe Illustrator 19.0.0, SVG Export Plug-In . SVG Version: 6.00 Build 0)  -->
<svg version="1.1" id="Calque_1" xmlns="http://www.w3.org/2000/svg" xmlns:xlink="http://www.w3.org/1999/xlink" x="0px" y="0px"
	 viewBox="0 0 226.8 226.8" style="enable-background:new 0 0 226.8 226.8;" xml:space="preserve">
<style type="text/css">
	.st0{fill:#FFFFFF;stroke:#000000;stroke-width:2;stroke-miterlimit:10;}
</style>
<path id="XMLID_38_" class="st0" d="M85.2,90.9C79.6,78.4,97.4,58.3,118,64s29.3,27.7,26.2,48c-2.5,16.5-24.1,50.7-29.2,53.5
	c-5.1,2.8-13.7,3.1-14.3,0"/>
<path id="XMLID_40_" class="st0" d="M100.8,82c3.9-4.7,20.3-4.2,25.6,2.8c5.3,7,5.6,14.3,5.7,19.6c0.1,4.4-2.2,10.2-7,18.2"/>
<path id="XMLID_39_" class="st0" d="M94.8,100.8c0.3,4.7,9.4,12.4,6,17.5c-5,7.6,3.1,11.1-2.9,20.5"/>
</svg>
