<?xml version="1.0" encoding="utf-8"?>
<!-- Generator: Adobe Illustrator 19.0.0, SVG Export Plug-In . SVG Version: 6.00 Build 0)  -->
<svg version="1.1" id="Calque_1" xmlns="http://www.w3.org/2000/svg" xmlns:xlink="http://www.w3.org/1999/xlink" x="0px" y="0px"
	 viewBox="0 0 226.8 226.8" style="enable-background:new 0 0 226.8 226.8;" xml:space="preserve">
<style type="text/css">
	.st0{fill:#FFFFFF;stroke:#000000;stroke-width:2;stroke-miterlimit:10;}
</style>
<path id="XMLID_25_" class="st0" d="M130.3,113.5l19.4-19.4c4.4-4.4,4.4-11.5,0-15.9l-0.5-0.5c-4.4-4.4-11.5-4.4-15.9,0l-19.4,19.4
	L94.5,77.8c-4.4-4.4-11.5-4.4-15.9,0l-0.5,0.5c-4.4,4.4-4.4,11.5,0,15.9l19.4,19.4l-19.4,19.4c-4.4,4.4-4.4,11.5,0,15.9l0.5,0.5
	c4.4,4.4,11.5,4.4,15.9,0l19.4-19.4l19.4,19.4c4.4,4.4,11.5,4.4,15.9,0l0.5-0.5c4.4-4.4,4.4-11.5,0-15.9L130.3,113.5z"/>
</svg>
