<?xml version="1.0" encoding="utf-8"?>
<!-- Generator: Adobe Illustrator 19.0.0, SVG Export Plug-In . SVG Version: 6.00 Build 0)  -->
<svg version="1.1" id="Calque_1" xmlns="http://www.w3.org/2000/svg" xmlns:xlink="http://www.w3.org/1999/xlink" x="0px" y="0px"
	 viewBox="0 0 226.8 226.8" style="enable-background:new 0 0 226.8 226.8;" xml:space="preserve">
<style type="text/css">
	.st0{fill:#FFFFFF;stroke:#000000;stroke-width:2;}
</style>
<g id="XMLID_111_">
	<circle id="XMLID_113_" class="st0" cx="114" cy="88.6" r="15.4"/>
	<path id="XMLID_112_" class="st0" d="M125.2,102.6c-12,9.1-22.2,0-22.2,0c-2.1,1.3-4.5,3.1-6.8,5.5c-6.5,6.7-8.8,14.3-9.7,18.5
		c2.6,2.3,11.9,10.1,26.2,10.7c16,0.7,26.8-8.2,29.2-10.3C139.1,109.6,125.2,102.6,125.2,102.6z"/>
</g>
<g id="XMLID_91_">
	<circle id="XMLID_93_" class="st0" cx="81.7" cy="105.3" r="15.4"/>
	<path id="XMLID_94_" class="st0" d="M92.9,118.3c-12,9.1-22.2,0-22.2,0c-2.1,1.3-4.5,3.1-6.8,5.5c-6.5,6.7-8.8,14.3-9.7,18.5
		c2.6,2.3,11.9,10.1,26.2,10.7c16,0.7,26.8-8.2,29.2-10.3C106.7,125.3,92.9,118.3,92.9,118.3z"/>
</g>
<g id="XMLID_90_">
	<circle id="XMLID_95_" class="st0" cx="145.6" cy="106.3" r="15.4"/>
	<path id="XMLID_92_" class="st0" d="M156.8,119.4c-12,9.1-22.2,0-22.2,0c-2.1,1.3-4.5,3.1-6.8,5.5c-6.5,6.7-8.8,14.3-9.7,18.5
		c2.6,2.3,11.9,10.1,26.2,10.7c16,0.7,26.8-8.2,29.2-10.3C170.6,126.3,156.8,119.4,156.8,119.4z"/>
</g>
</svg>
