<?xml version="1.0" encoding="utf-8"?>
<!-- Generator: Adobe Illustrator 19.0.0, SVG Export Plug-In . SVG Version: 6.00 Build 0)  -->
<svg version="1.1" id="Calque_1" xmlns="http://www.w3.org/2000/svg" xmlns:xlink="http://www.w3.org/1999/xlink" x="0px" y="0px"
	 viewBox="-184 308.1 226.8 226.8" style="enable-background:new -184 308.1 226.8 226.8;" xml:space="preserve">
<style type="text/css">
	.st0{fill:#FFFFFF;stroke:#000000;stroke-width:2;stroke-miterlimit:10;}
	.st1{fill:#FFFFFF;stroke:#000000;stroke-miterlimit:10;}
</style>
<path id="XMLID_50_" class="st0" d="M-17.5,394L-17.5,394c-1.4-4-4-7.5-7.4-10c-0.1-3.1-2.6-5.6-5.6-5.6h-17.7c-1.6,0-3,0.7-4.1,1.7
	h-36c-1-1.1-2.5-1.7-4.1-1.7h-17.7c-3.1,0-5.6,2.5-5.6,5.6l0,0l0,0c-3.3,2.5-5.9,5.9-7.2,9.9h-0.1c-1.2,6.4-16.6,50.1-15.8,57.2
	c0.8,7.1,12.3,15.5,21,8.9c4.7-3.5,13.9-18.7,21.3-31.9h52.3c7.4,13.2,16.6,28.3,21.3,31.9c8.7,6.6,20.2-1.8,21-8.9
	C-1.1,444-16.4,400.4-17.5,394z"/>
<path id="XMLID_41_" class="st1" d="M-97.5,407l7.7-0.1c1.7,0,3.1-1.4,3.1-3.2v-0.2c0-1.7-1.4-3.1-3.2-3.1l-7.7,0.1l-0.1-7.7
	c0-1.7-1.5-3.1-3.2-3.1h-0.2c-1.7,0-3.1,1.5-3.1,3.2l0.1,7.7l-7.7,0.1c-1.7,0-3.1,1.4-3.1,3.2v0.2c0,1.7,1.4,3.1,3.2,3.1l7.7-0.1
	l0.1,7.7c0,1.7,1.5,3.1,3.2,3.1h0.2c1.7,0,3.1-1.5,3.1-3.2L-97.5,407z"/>
<circle id="XMLID_42_" class="st1" cx="-42.4" cy="394.9" r="4.9"/>
<circle id="XMLID_43_" class="st1" cx="-42.4" cy="412.7" r="4.9"/>
<circle id="XMLID_44_" class="st1" cx="-33" cy="403.9" r="4.9"/>
<circle id="XMLID_45_" class="st1" cx="-51.8" cy="403.9" r="4.9"/>
</svg>
