<?xml version="1.0" encoding="utf-8"?>
<!-- Generator: Adobe Illustrator 19.0.0, SVG Export Plug-In . SVG Version: 6.00 Build 0)  -->
<svg version="1.1" id="Calque_1" xmlns="http://www.w3.org/2000/svg" xmlns:xlink="http://www.w3.org/1999/xlink" x="0px" y="0px"
	 viewBox="-184 308.1 226.8 226.8" style="enable-background:new -184 308.1 226.8 226.8;" xml:space="preserve">
<style type="text/css">
	.st0{fill:#FFFFFF;stroke:#000000;stroke-width:2;stroke-linecap:round;stroke-linejoin:round;stroke-miterlimit:10;}
</style>
<path id="XMLID_23_" class="st0" d="M-35.1,382.7c0-0.8-0.3-1.5-0.9-2.1l-0.1-0.1l-0.1-0.1c-0.6-0.6-1.3-0.9-2.1-0.9h-20.3h-14.9
	h-18.2c-0.8,0-1.5,0.3-2.1,0.9l-0.1,0.1l-0.1,0.1c-0.6,0.6-0.9,1.3-0.9,2.1v0.5v2.5v56c-3.6-1.9-8.7-2.2-13.8-0.3
	c-7.9,2.9-12.5,10-10.4,15.7c2.1,5.8,10.3,8.1,18.1,5.1c7-2.6,11.4-8.4,10.9-13.6v-52.1h11.2h25.5h13.3v45.2
	c-3.6-2-8.8-2.2-13.8-0.4c-7.9,2.9-12.5,10-10.4,15.7c2.1,5.8,10.3,8.1,18.1,5.1c6.6-2.4,10.9-7.8,10.9-12.8l0,0v-66.6H-35.1z"/>
</svg>
