<?xml version="1.0" encoding="utf-8"?>
<!-- Generator: Adobe Illustrator 19.0.0, SVG Export Plug-In . SVG Version: 6.00 Build 0)  -->
<svg version="1.1" id="Calque_1" xmlns="http://www.w3.org/2000/svg" xmlns:xlink="http://www.w3.org/1999/xlink" x="0px" y="0px"
	 viewBox="0 0 226.8 226.8" style="enable-background:new 0 0 226.8 226.8;" xml:space="preserve">
<style type="text/css">
	.st0{fill:#FFFFFF;stroke:#000000;stroke-miterlimit:10;}
	.st1{fill:#FFFFFF;stroke:#000000;stroke-width:2;stroke-miterlimit:10;}
</style>
<path id="XMLID_104_" class="st0" d="M148.6,75.7h-21v-1c0-2.4-2.7-4.4-5.9-4.4h-19.3c-3.3,0-5.9,2-5.9,4.4V80v5.5v50.2
	c0,2.4,2.6,4.3,5.9,4.3h46.3c3.2,0,5.9-1.9,5.9-4.3V80C154.5,77.6,151.9,75.7,148.6,75.7z"/>
<path id="XMLID_103_" class="st0" d="M136.7,81.2h-21v-1c0-2.4-2.7-4.4-5.9-4.4H90.4c-3.3,0-5.9,2-5.9,4.4v5.3v5.5v50.2
	c0,2.4,2.6,4.3,5.9,4.3h46.3c3.2,0,5.9-1.9,5.9-4.3V85.6C142.5,83.2,139.9,81.2,136.7,81.2z"/>
<path id="XMLID_102_" class="st0" d="M124.9,86.8h-21v-1c0-2.4-2.7-4.4-5.9-4.4H78.7c-3.3,0-5.9,2-5.9,4.4v5.3v5.5v50.2
	c0,2.4,2.6,4.3,5.9,4.3h46.3c3.2,0,5.9-1.9,5.9-4.3V91.1C130.8,88.7,128.2,86.8,124.9,86.8z"/>
<rect id="XMLID_105_" x="68.7" y="100.7" class="st1" width="66" height="56"/>
<path id="XMLID_107_" class="st1" d="M134.7,100.7c2.8-1.7,22.4-12.5,23.6-13c0.2,0.7,0.1,50.5,0,52.3c-0.1,1.8-0.1,1.8-0.1,1.8
	s-22,15.3-23.5,14.9C134.6,155,134.6,103.2,134.7,100.7z"/>
<path id="XMLID_106_" class="st1" d="M134.7,100.7c2.8-1.7,22.4-12.5,23.6-13c0.4,0,0.1,50.5,0,52.3"/>
<line id="XMLID_109_" class="st1" x1="158.3" y1="87.7" x2="154.5" y2="87.7"/>
</svg>
