<?xml version="1.0" encoding="utf-8"?>
<!-- Generator: Adobe Illustrator 19.0.0, SVG Export Plug-In . SVG Version: 6.00 Build 0)  -->
<svg version="1.1" id="Calque_1" xmlns="http://www.w3.org/2000/svg" xmlns:xlink="http://www.w3.org/1999/xlink" x="0px" y="0px"
	 viewBox="0 0 226.8 226.8" style="enable-background:new 0 0 226.8 226.8;" xml:space="preserve">
<style type="text/css">
	.st0{fill:#FFFFFF;stroke:#000000;stroke-width:2;stroke-miterlimit:10;}
</style>
<path id="XMLID_14_" class="st0" d="M112.6,124.7h46.2c5.8,0,10.5-4.7,10.5-10.5v0c0-5.8-4.7-10.5-10.5-10.5h-46.2
	c-5.8,0-10.5,4.7-10.5,10.5v0C102.1,120,106.8,124.7,112.6,124.7z"/>
<path id="XMLID_13_" class="st0" d="M61.1,107.3l28.1-23.6c3.4-2.9,8.6-2.4,11.5,1l2.7,3.2c2.9,3.4,2.4,8.6-1,11.5l-17.1,14.3
	l17.8,14.9c3.4,2.9,3.9,8.1,1,11.5l-2.7,3.2c-2.9,3.4-8.1,3.9-11.5,1L66,124.5c-1-0.8-1.2-1.2-2.3-2.1l-1.2-1
	c-0.6-0.5-1.6-1.6-2.4-2.5l0,0C57.2,115.3,57.6,110.2,61.1,107.3z"/>
</svg>
