<?xml version="1.0" encoding="utf-8"?>
<!-- Generator: Adobe Illustrator 19.0.0, SVG Export Plug-In . SVG Version: 6.00 Build 0)  -->
<svg version="1.1" id="Calque_1" xmlns="http://www.w3.org/2000/svg" xmlns:xlink="http://www.w3.org/1999/xlink" x="0px" y="0px"
	 viewBox="0 0 226.8 226.8" style="enable-background:new 0 0 226.8 226.8;" xml:space="preserve">
<style type="text/css">
	.st0{fill:#FFFFFF;stroke:#000000;stroke-width:2;stroke-miterlimit:10;}
</style>
<circle id="XMLID_58_" class="st0" cx="118.9" cy="131.2" r="6"/>
<circle id="XMLID_57_" class="st0" cx="118.9" cy="69.7" r="6"/>
<path id="XMLID_56_" class="st0" d="M118.4,137.3c20.3,0,36.8-16.5,36.8-36.8s-16.5-36.8-36.8-36.8"/>
<path id="XMLID_55_" class="st0" d="M118.4,140"/>
<path id="XMLID_54_" class="st0" d="M118.4,75.7c13.7,0,24.8,11.1,24.8,24.8s-11.1,24.8-24.8,24.8"/>
<path id="XMLID_53_" class="st0" d="M73.9,125.6L102,102c3.4-2.9,8.6-2.4,11.5,1l2.7,3.2c2.9,3.4,2.4,8.6-1,11.5L98,132.1l17.8,14.9
	c3.4,2.9,3.9,8.1,1,11.5l-2.7,3.2c-2.9,3.4-8.1,3.9-11.5,1l-23.9-19.8c-1-0.8-1.2-1.2-2.3-2.1l-1.2-1c-0.6-0.5-1.6-1.6-2.4-2.5l0,0
	C70,133.7,70.4,128.5,73.9,125.6z"/>
</svg>
