<?xml version="1.0" encoding="utf-8"?>
<!-- Generator: Adobe Illustrator 19.0.0, SVG Export Plug-In . SVG Version: 6.00 Build 0)  -->
<svg version="1.1" id="Calque_1" xmlns="http://www.w3.org/2000/svg" xmlns:xlink="http://www.w3.org/1999/xlink" x="0px" y="0px"
	 viewBox="0 0 226.8 226.8" style="enable-background:new 0 0 226.8 226.8;" xml:space="preserve">
<style type="text/css">
	.st0{fill:#FFFFFF;stroke:#000000;stroke-width:2;stroke-miterlimit:10;}
</style>
<path id="XMLID_16_" class="st0" d="M114.4,124.7H68.2c-5.8,0-10.5-4.7-10.5-10.5v0c0-5.8,4.7-10.5,10.5-10.5h46.2
	c5.8,0,10.5,4.7,10.5,10.5v0C124.9,120,120.2,124.7,114.4,124.7z"/>
<path id="XMLID_12_" class="st0" d="M166,107.3l-28.1-23.6c-3.4-2.9-8.6-2.4-11.5,1l-2.7,3.2c-2.9,3.4-2.4,8.6,1,11.5l17.1,14.3
	L124,128.6c-3.4,2.9-3.9,8.1-1,11.5l2.7,3.2c2.9,3.4,8.1,3.9,11.5,1l23.9-19.8c1-0.8,1.2-1.2,2.3-2.1l1.2-1c0.6-0.5,1.6-1.6,2.4-2.5
	l0,0C169.9,115.4,169.4,110.2,166,107.3z"/>
</svg>
