<?xml version="1.0" encoding="utf-8"?>
<!-- Generator: Adobe Illustrator 19.0.0, SVG Export Plug-In . SVG Version: 6.00 Build 0)  -->
<svg version="1.1" id="Calque_1" xmlns="http://www.w3.org/2000/svg" xmlns:xlink="http://www.w3.org/1999/xlink" x="0px" y="0px"
	 viewBox="0 0 226.8 226.8" style="enable-background:new 0 0 226.8 226.8;" xml:space="preserve">
<style type="text/css">
	.st0{fill:#FFFFFF;stroke:#000000;stroke-width:2;stroke-miterlimit:10;}
</style>
<polyline id="XMLID_33_" class="st0" points="137.3,132.4 150.3,132.4 150.3,169 76.9,169 76.9,132.4 84.9,132.4 88.5,132.4 "/>
<path id="XMLID_29_" class="st0" d="M121.1,102.1V65.7c0-3.7-3-6.7-6.7-6.7H113c-3.7,0-6.7,3-6.7,6.7v36.4c0,3.7,3,6.7,6.7,6.7h1.4
	C118.1,108.7,121.1,105.7,121.1,102.1z"/>
<path id="XMLID_28_" class="st0" d="M108.9,139.1l-16.5-20.8c-2-2.5-1.7-6.4,0.7-8.5l2.2-2c2.4-2.1,6-1.8,8,0.7l10,12.6l10.4-13.1
	c2-2.5,5.6-2.9,8-0.7l2.2,2c2.4,2.1,2.7,6,0.7,8.5L121,135.4c-0.6,0.8-0.8,0.9-1.5,1.7l-0.7,0.9c-0.4,0.4-1.2,1.2-1.7,1.8l0,0
	C114.6,142,110.9,141.6,108.9,139.1z"/>
</svg>
