<?xml version="1.0" encoding="utf-8"?>
<!-- Generator: Adobe Illustrator 19.0.0, SVG Export Plug-In . SVG Version: 6.00 Build 0)  -->
<svg version="1.1" id="Calque_1" xmlns="http://www.w3.org/2000/svg" xmlns:xlink="http://www.w3.org/1999/xlink" x="0px" y="0px"
	 viewBox="-184 308.1 226.8 226.8" style="enable-background:new -184 308.1 226.8 226.8;" xml:space="preserve">
<style type="text/css">
	.st0{fill:#FFFFFF;stroke:#000000;stroke-width:2;stroke-miterlimit:10;}
</style>
<g id="XMLID_30_">
	<path id="XMLID_31_" class="st0" d="M-38.3,382.8l0.9,18.2h-2.2c-0.4-3.2-1-5.5-1.7-6.9c-1.2-2.2-2.8-3.9-4.7-4.9
		c-2-1.1-4.6-1.6-7.8-1.6h-11v59.5c0,4.8,0.5,7.8,1.5,8.9c1.5,1.6,3.7,2.4,6.7,2.4h2.7v2.1h-33v-2.1h2.8c3.3,0,5.6-1,7-3
		c0.8-1.2,1.3-4,1.3-8.4v-59.3h-9.3c-3.6,0-6.2,0.3-7.7,0.8c-2,0.7-3.7,2.1-5.1,4.2c-1.4,2.1-2.3,4.9-2.5,8.4h-2.2l0.9-18.2h63.4
		V382.8z"/>
</g>
</svg>
