<?xml version="1.0" encoding="utf-8"?>
<!-- Generator: Adobe Illustrator 19.0.0, SVG Export Plug-In . SVG Version: 6.00 Build 0)  -->
<svg version="1.1" id="Calque_1" xmlns="http://www.w3.org/2000/svg" xmlns:xlink="http://www.w3.org/1999/xlink" x="0px" y="0px"
	 viewBox="-184 308.1 226.8 226.8" style="enable-background:new -184 308.1 226.8 226.8;" xml:space="preserve">
<style type="text/css">
	.st0{fill:#FFFFFF;stroke:#000000;stroke-width:2;stroke-miterlimit:10;}
	.st1{fill:none;stroke:#000000;stroke-width:2;stroke-miterlimit:10;}
	.st2{fill:#FFFFFF;stroke:#000000;stroke-miterlimit:10;}
	.st3{fill:none;stroke:#000000;stroke-miterlimit:10;}
</style>
<path id="XMLID_61_" class="st0" d="M-19.3,472.1h-100c-1,0-1.9-0.9-1.9-1.9V404c0-1,0.9-1.9,1.9-1.9h100c1,0,1.9,0.9,1.9,1.9v66.2
	C-17.4,471.3-18.3,472.1-19.3,472.1z"/>
<polygon id="XMLID_66_" class="st0" points="-21,371.4 -123.4,389.9 -121.4,402.8 -19,384.2 "/>
<line id="XMLID_67_" class="st1" x1="-121.2" y1="414.3" x2="-17.4" y2="414.3"/>
<polygon id="XMLID_68_" class="st2" points="-114.9,402.1 -110.8,414.3 -102.9,414.3 -107,402.1 "/>
<polygon id="XMLID_69_" class="st3" points="-46.9,402.1 -42.8,414.3 -35,414.3 -39.1,402.1 "/>
<polygon id="XMLID_70_" class="st3" points="-63.4,402.1 -59.3,414.3 -51.4,414.3 -55.5,402.1 "/>
<polygon id="XMLID_71_" class="st3" points="-80.1,402.1 -76,414.3 -68.2,414.3 -72.3,402.1 "/>
<polygon id="XMLID_72_" class="st3" points="-96.8,402.1 -92.7,414.3 -84.9,414.3 -89,402.1 "/>
<polygon id="XMLID_73_" class="st3" points="-30.9,402.1 -26.8,414.3 -19,414.3 -23.1,402.1 "/>
<g id="XMLID_74_">
	<polygon id="XMLID_75_" class="st3" points="-105.7,387.1 -107.2,399.8 -114.9,401.4 -113.3,388.7 	"/>
</g>
<g id="XMLID_78_">
	<polygon id="XMLID_79_" class="st3" points="-24,372 -25.5,384.8 -33.2,386.3 -31.6,373.6 	"/>
</g>
<g id="XMLID_80_">
	<polygon id="XMLID_81_" class="st3" points="-39.9,374.8 -41.5,387.6 -49.2,389.2 -47.6,376.4 	"/>
</g>
<g id="XMLID_82_">
	<polygon id="XMLID_83_" class="st2" points="-56.4,377.8 -58,390.5 -65.6,392.1 -64.1,379.4 	"/>
</g>
<g id="XMLID_84_">
	<polygon id="XMLID_85_" class="st3" points="-71.9,380.6 -73.5,393.3 -81.1,394.9 -79.6,382.2 	"/>
</g>
<g id="XMLID_86_">
	<polygon id="XMLID_87_" class="st3" points="-88.3,383.5 -89.8,396.3 -97.5,397.8 -96,385.1 	"/>
</g>
</svg>
