<?xml version="1.0" encoding="utf-8"?>
<!-- Generator: Adobe Illustrator 19.0.0, SVG Export Plug-In . SVG Version: 6.00 Build 0)  -->
<svg version="1.1" id="Calque_1" xmlns="http://www.w3.org/2000/svg" xmlns:xlink="http://www.w3.org/1999/xlink" x="0px" y="0px"
	 viewBox="0 0 226.8 226.8" style="enable-background:new 0 0 226.8 226.8;" xml:space="preserve">
<style type="text/css">
	.st0{fill:#FFFFFF;stroke:#000000;stroke-width:2;stroke-miterlimit:10;}
	.st1{fill:#FFFFFF;stroke:#000000;stroke-miterlimit:10;}
</style>
<circle id="XMLID_2_" class="st0" cx="99.3" cy="100.5" r="32.9"/>
<circle id="XMLID_4_" class="st1" cx="99.3" cy="100.5" r="27.5"/>
<path id="XMLID_60_" class="st0" d="M157.6,73h-7.8v-8.6c0-1.1-0.9-2.1-2.1-2.1s-2.1,0.9-2.1,2.1V73h-7.8c-1.1,0-2.1,0.9-2.1,2.1
	c0,1.1,0.9,2.1,2.1,2.1h7.8v7c0,1.1,0.9,2.1,2.1,2.1s2.1-0.9,2.1-2.1v-7h7.8c1.1,0,2.1-0.9,2.1-2.1C159.7,74,158.8,73,157.6,73z"/>
<path id="XMLID_8_" class="st0" d="M117.1,128.2c0,0,23.8,33.4,24.7,35c0,0,4.5,3.1,4.7-2.8l-25.1-35.5"/>
</svg>
